<?xml version="1.0" encoding="UTF-8" standalone="no"?><svg xmlns="http://www.w3.org/2000/svg" xmlns:xlink="http://www.w3.org/1999/xlink" contentScriptType="application/ecmascript" contentStyleType="text/css" height="570px" preserveAspectRatio="none" style="width:919px;height:570px;" version="1.1" viewBox="0 0 919 570" width="919px" zoomAndPan="magnify"><defs/><g><ellipse cx="628.4056" cy="108.186" fill="#F8F8F8" rx="33.4056" ry="13.242" style="stroke: #383838; stroke-width: 0.5;"/><text fill="#000000" font-family="Tahoma, sans-serif" font-size="12" lengthAdjust="spacingAndGlyphs" textLength="43" x="606.9056" y="111.9282">actions</text><ellipse cx="628.7013" cy="184.8843" fill="#F8F8F8" rx="57.7013" ry="13.9403" style="stroke: #383838; stroke-width: 0.5;"/><text fill="#000000" font-family="Tahoma, sans-serif" font-size="12" lengthAdjust="spacingAndGlyphs" textLength="82" x="587.7013" y="188.6264">actions.config</text><ellipse cx="628.4558" cy="64.7352" fill="#F8F8F8" rx="56.9558" ry="13.7912" style="stroke: #383838; stroke-width: 0.5;"/><text fill="#000000" font-family="Tahoma, sans-serif" font-size="12" font-weight="bold" lengthAdjust="spacingAndGlyphs" textLength="80" x="588.4558" y="68.4774">actions.test</text><ellipse cx="71.1408" cy="88.8722" fill="#F8F8F8" rx="65.1408" ry="15.4282" style="stroke: #383838; stroke-width: 0.5;"/><text fill="#000000" font-family="Tahoma, sans-serif" font-size="12" font-weight="bold" lengthAdjust="spacingAndGlyphs" textLength="101" x="20.6408" y="92.6144">autotrader-test</text><ellipse cx="628.6985" cy="362.186" fill="#F8F8F8" rx="32.6985" ry="13.242" style="stroke: #383838; stroke-width: 0.5;"/><text fill="#000000" font-family="Tahoma, sans-serif" font-size="12" font-weight="bold" lengthAdjust="spacingAndGlyphs" textLength="42" x="607.6985" y="365.9282">config</text><ellipse cx="628.4914" cy="499.1864" fill="#F8F8F8" rx="31.9914" ry="13.242" style="stroke: #383838; stroke-width: 0.5;"/><text fill="#000000" font-family="Tahoma, sans-serif" font-size="12" lengthAdjust="spacingAndGlyphs" textLength="41" x="607.9914" y="502.9286">equifax</text><ellipse cx="70.9558" cy="279.7352" fill="#F8F8F8" rx="56.9558" ry="13.7912" style="stroke: #383838; stroke-width: 0.5;"/><text fill="#000000" font-family="Tahoma, sans-serif" font-size="12" font-weight="bold" lengthAdjust="spacingAndGlyphs" textLength="80" x="30.9558" y="283.4774">equifax-test</text><ellipse cx="628.3051" cy="274.186" fill="#F8F8F8" rx="43.3051" ry="13.242" style="stroke: #383838; stroke-width: 0.5;"/><text fill="#000000" font-family="Tahoma, sans-serif" font-size="12" lengthAdjust="spacingAndGlyphs" textLength="57" x="599.8051" y="277.9282">extraction</text><ellipse cx="628.5267" cy="230.0493" fill="#F8F8F8" rx="63.5267" ry="15.1053" style="stroke: #383838; stroke-width: 0.5;"/><text fill="#000000" font-family="Tahoma, sans-serif" font-size="12" font-weight="bold" lengthAdjust="spacingAndGlyphs" textLength="97" x="580.0267" y="233.7915">extraction.test</text><ellipse cx="770.4264" cy="293.186" fill="#F8F8F8" rx="45.4264" ry="13.242" style="stroke: #383838; stroke-width: 0.5;"/><text fill="#000000" font-family="Tahoma, sans-serif" font-size="12" lengthAdjust="spacingAndGlyphs" textLength="60" x="740.4264" y="296.9282">formatters</text><ellipse cx="255.5267" cy="461.0497" fill="#F8F8F8" rx="63.5267" ry="15.1053" style="stroke: #383838; stroke-width: 0.5;"/><text fill="#000000" font-family="Tahoma, sans-serif" font-size="12" lengthAdjust="spacingAndGlyphs" textLength="97" x="207.0267" y="464.7919">get-score-config</text><ellipse cx="453.6268" cy="147.9694" fill="#F8F8F8" rx="63.1268" ry="15.0254" style="stroke: #383838; stroke-width: 0.5;"/><text fill="#000000" font-family="Tahoma, sans-serif" font-size="12" font-weight="bold" lengthAdjust="spacingAndGlyphs" textLength="96" x="405.6268" y="151.7115">graphql-server</text><ellipse cx="453.7132" cy="226.186" fill="#F8F8F8" rx="24.2132" ry="13.242" style="stroke: #383838; stroke-width: 0.5;"/><text fill="#000000" font-family="Tahoma, sans-serif" font-size="12" lengthAdjust="spacingAndGlyphs" textLength="30" x="438.7132" y="229.9282">index</text><ellipse cx="877.299" cy="499.1864" fill="#F8F8F8" rx="22.799" ry="13.242" style="stroke: #383838; stroke-width: 0.5;"/><text fill="#000000" font-family="Tahoma, sans-serif" font-size="12" lengthAdjust="spacingAndGlyphs" textLength="28" x="863.299" y="502.9286">login</text><ellipse cx="628.5478" cy="406.9536" fill="#F8F8F8" rx="65.5478" ry="15.5096" style="stroke: #383838; stroke-width: 0.5;"/><text fill="#000000" font-family="Tahoma, sans-serif" font-size="12" lengthAdjust="spacingAndGlyphs" textLength="102" x="577.5478" y="410.6958">meso-hold.config</text><ellipse cx="628.3309" cy="453.7106" fill="#F8F8F8" rx="64.3309" ry="15.2662" style="stroke: #383838; stroke-width: 0.5;"/><text fill="#000000" font-family="Tahoma, sans-serif" font-size="12" lengthAdjust="spacingAndGlyphs" textLength="99" x="578.8309" y="457.4528">meso-mm.config</text><ellipse cx="255.5423" cy="253.0525" fill="#F8F8F8" rx="88.5423" ry="20.1085" style="stroke: #383838; stroke-width: 0.5;"/><text fill="#000000" font-family="Tahoma, sans-serif" font-size="12" lengthAdjust="spacingAndGlyphs" textLength="155" x="178.0423" y="256.7946">multiple-extractions-config</text><ellipse cx="453.281" cy="28.0002" fill="#F8F8F8" rx="78.281" ry="18.0562" style="stroke: #383838; stroke-width: 0.5;"/><text fill="#000000" font-family="Tahoma, sans-serif" font-size="12" lengthAdjust="spacingAndGlyphs" textLength="132" x="387.281" y="31.7424">multiple-listings-config</text><ellipse cx="770.299" cy="217.186" fill="#F8F8F8" rx="22.799" ry="13.242" style="stroke: #383838; stroke-width: 0.5;"/><text fill="#000000" font-family="Tahoma, sans-serif" font-size="12" lengthAdjust="spacingAndGlyphs" textLength="28" x="756.299" y="220.9282">page</text><ellipse cx="453.4914" cy="386.186" fill="#F8F8F8" rx="31.9914" ry="13.242" style="stroke: #383838; stroke-width: 0.5;"/><text fill="#000000" font-family="Tahoma, sans-serif" font-size="12" font-weight="bold" lengthAdjust="spacingAndGlyphs" textLength="41" x="432.9914" y="389.9282">server</text><!--entity _typings--><rect fill="#F8F8F8" height="34.4844" rx="3" ry="3" style="stroke: #000000; stroke-width: 0.5;" width="61" x="847" y="237.944"/><text fill="#000000" font-family="Tahoma, sans-serif" font-size="12" lengthAdjust="spacingAndGlyphs" textLength="41" x="857" y="259.9499">typings</text><ellipse cx="255.3757" cy="306.1191" fill="#F8F8F8" rx="71.3757" ry="16.6751" style="stroke: #383838; stroke-width: 0.5;"/><text fill="#000000" font-family="Tahoma, sans-serif" font-size="12" lengthAdjust="spacingAndGlyphs" textLength="116" x="197.3757" y="309.8613">update-score.config</text><!--link actions to _typings--><path d="M660.425,103.583 C700.243,99.689 769.797,98.901 816,131.944 C849.712,156.054 865.555,204.287 872.24,232.662 " fill="none" id="actions-_typings" style="stroke: #000000; stroke-width: 0.5;"/><polygon fill="#000000" points="873.384,237.719,875.3005,228.0584,872.2812,232.8421,867.4975,229.8229,873.384,237.719" style="stroke: #000000; stroke-width: 0.5;"/><!--link <b>actions.test</b> to actions--><path d="M628.5,78.959 C628.5,82.434 628.5,85.908 628.5,89.383 " fill="none" id="&lt;b&gt;actions.test&lt;/b&gt;-actions" style="stroke: #000000; stroke-width: 1.0;"/><polygon fill="#000000" points="628.5,94.843,632.5,85.843,628.5,89.843,624.5,85.843,628.5,94.843" style="stroke: #000000; stroke-width: 1.0;"/><!--link <b>actions.test</b> to _typings--><path d="M685.249,63.264 C725.812,64.939 779.758,73.546 816,103.944 C855.435,137.02 869.384,199.532 874.148,232.804 " fill="none" id="&lt;b&gt;actions.test&lt;/b&gt;-_typings" style="stroke: #000000; stroke-width: 1.0;"/><polygon fill="#000000" points="874.836,237.884,877.5911,228.4283,874.1645,232.9293,869.6636,229.5027,874.836,237.884" style="stroke: #000000; stroke-width: 1.0;"/><!--link <b>autotrader-test</b> to actions--><path d="M135.729,87.32 C224.622,85.614 390.823,84.454 532,94.944 C552.134,96.44 574.503,99.414 592.528,102.14 " fill="none" id="&lt;b&gt;autotrader-test&lt;/b&gt;-actions" style="stroke: #000000; stroke-width: 1.0;"/><polygon fill="#000000" points="597.491,102.901,589.2004,97.5844,592.5486,102.1439,587.9891,105.4922,597.491,102.901" style="stroke: #000000; stroke-width: 1.0;"/><!--link <b>autotrader-test</b> to extraction--><path d="M133.916,92.995 C190.927,98.698 276.617,112.355 344,144.944 C360.188,152.774 358.852,163.032 375,170.944 C439.113,202.357 473.29,164.319 532,204.944 C552.883,219.395 542.876,237.453 563,252.944 C569.878,258.239 578.142,262.225 586.423,265.218 " fill="none" id="&lt;b&gt;autotrader-test&lt;/b&gt;-extraction" style="stroke: #000000; stroke-width: 1.0;"/><polygon fill="#000000" points="591.57,266.956,584.3208,260.289,586.8323,265.3577,581.7636,267.8693,591.57,266.956" style="stroke: #000000; stroke-width: 1.0;"/><!--link <b>autotrader-test</b> to index--><path d="M106.366,102.183 C162.376,123.639 276.948,167.024 375,200.944 C392.405,206.966 412.166,213.333 427.377,218.134 " fill="none" id="&lt;b&gt;autotrader-test&lt;/b&gt;-index" style="stroke: #000000; stroke-width: 1.0;"/><polygon fill="#000000" points="432.351,219.7,424.9672,213.1824,427.5817,218.1988,422.5653,220.8133,432.351,219.7" style="stroke: #000000; stroke-width: 1.0;"/><!--link <b>autotrader-test</b> to multiple-listings-config--><path d="M107.195,76 C124.914,69.955 146.857,63.175 167,58.944 C235.322,44.595 314.318,36.668 371.872,32.432 " fill="none" id="&lt;b&gt;autotrader-test&lt;/b&gt;-multiple-listings-config" style="stroke: #000000; stroke-width: 1.0;"/><polygon fill="#000000" points="377.023,32.058,367.7574,28.719,372.0361,32.4194,368.3357,36.6981,377.023,32.058" style="stroke: #000000; stroke-width: 1.0;"/><!--link <b>config</b> to _typings--><path d="M659.324,366.432 C698.254,370.734 767.168,372.884 816,343.944 C841.701,328.713 858.9,297.784 868.19,276.712 " fill="none" id="&lt;b&gt;config&lt;/b&gt;-_typings" style="stroke: #000000; stroke-width: 1.0;"/><polygon fill="#000000" points="870.163,272.111,862.9406,278.8071,868.1931,276.7066,870.2936,281.959,870.163,272.111" style="stroke: #000000; stroke-width: 1.0;"/><!--link equifax to login--><path d="M660.783,498.9444 C709.531,498.9444 802.816,498.9444 849.082,498.9444 " fill="none" id="equifax-login" style="stroke: #000000; stroke-width: 0.5;"/><polygon fill="#000000" points="854.216,498.9444,845.216,494.9444,849.216,498.9444,845.216,502.9444,854.216,498.9444" style="stroke: #000000; stroke-width: 0.5;"/><!--link <b>equifax-test</b> to actions--><path d="M86.0917,266.296 C103.785,249.748 135.636,221.855 167,203.944 C252.873,154.907 278.391,146.052 375,124.944 C449.753,108.612 539.654,106.634 589.498,107.038 " fill="none" id="&lt;b&gt;equifax-test&lt;/b&gt;-actions" style="stroke: #000000; stroke-width: 1.0;"/><polygon fill="#000000" points="594.784,107.091,585.8244,103.0012,589.7842,107.041,585.7445,111.0008,594.784,107.091" style="stroke: #000000; stroke-width: 1.0;"/><!--link <b>equifax-test</b> to extraction--><path d="M90.1489,293.236 C108.479,305.77 138.135,323.686 167,330.944 C324.864,370.639 520.417,312.159 595.812,285.755 " fill="none" id="&lt;b&gt;equifax-test&lt;/b&gt;-extraction" style="stroke: #000000; stroke-width: 1.0;"/><polygon fill="#000000" points="600.602,284.064,590.7837,283.2882,595.8872,285.7285,593.4469,290.8319,600.602,284.064" style="stroke: #000000; stroke-width: 1.0;"/><!--link <b>equifax-test</b> to get-score-config--><path d="M85.7172,293.549 C118.03,325.596 198.97,405.871 235.767,442.3651 " fill="none" id="&lt;b&gt;equifax-test&lt;/b&gt;-get-score-config" style="stroke: #000000; stroke-width: 1.0;"/><polygon fill="#000000" points="239.609,446.1756,236.0362,436.9976,236.0591,442.6545,230.4023,442.6774,239.609,446.1756" style="stroke: #000000; stroke-width: 1.0;"/><!--link <b>equifax-test</b> to index--><path d="M88.9591,266.383 C107.06,252.85 137.183,232.953 167,224.944 C259.098,200.208 374.018,213.217 425.439,221.208 " fill="none" id="&lt;b&gt;equifax-test&lt;/b&gt;-index" style="stroke: #000000; stroke-width: 1.0;"/><polygon fill="#000000" points="430.509,222.012,422.2462,216.6523,425.5707,221.2292,420.9937,224.5536,430.509,222.012" style="stroke: #000000; stroke-width: 1.0;"/><!--link <b>equifax-test</b> to multiple-extractions-config--><path d="M120.428,272.78 C137.416,270.266 156.965,267.374 175.788,264.589 " fill="none" id="&lt;b&gt;equifax-test&lt;/b&gt;-multiple-extractions-config" style="stroke: #000000; stroke-width: 1.0;"/><polygon fill="#000000" points="181.076,263.807,171.5869,261.1694,176.13,264.5399,172.7595,269.083,181.076,263.807" style="stroke: #000000; stroke-width: 1.0;"/><!--link <b>equifax-test</b> to update-score.config--><path d="M120.907,286.912 C141.913,289.905 166.766,293.445 189.304,296.656 " fill="none" id="&lt;b&gt;equifax-test&lt;/b&gt;-update-score.config" style="stroke: #000000; stroke-width: 1.0;"/><polygon fill="#000000" points="194.375,297.379,186.0297,292.1488,189.4251,296.6733,184.9005,300.0687,194.375,297.379" style="stroke: #000000; stroke-width: 1.0;"/><!--link extraction to formatters--><path d="M668.498,279.237 C685.655,281.565 705.927,284.317 723.79,286.741 " fill="none" id="extraction-formatters" style="stroke: #000000; stroke-width: 0.5;"/><polygon fill="#000000" points="728.759,287.415,720.3792,282.2402,723.8045,286.7421,719.3026,290.1674,728.759,287.415" style="stroke: #000000; stroke-width: 0.5;"/><!--link extraction to _typings--><path d="M670.842,270.764 C718.712,267.082 796.721,261.081 841.646,257.625 " fill="none" id="extraction-_typings" style="stroke: #000000; stroke-width: 0.5;"/><polygon fill="#000000" points="846.689,257.238,837.4082,253.9415,841.7038,257.6222,838.023,261.9178,846.689,257.238" style="stroke: #000000; stroke-width: 0.5;"/><!--link <b>extraction.test</b> to extraction--><path d="M628.5,245.413 C628.5,248.797 628.5,252.181 628.5,255.564 " fill="none" id="&lt;b&gt;extraction.test&lt;/b&gt;-extraction" style="stroke: #000000; stroke-width: 1.0;"/><polygon fill="#000000" points="628.5,260.882,632.5,251.882,628.5,255.882,624.5,251.882,628.5,260.882" style="stroke: #000000; stroke-width: 1.0;"/><!--link <b>extraction.test</b> to page--><path d="M688.061,224.507 C707.045,222.744 727.183,220.874 742.684,219.434 " fill="none" id="&lt;b&gt;extraction.test&lt;/b&gt;-page" style="stroke: #000000; stroke-width: 1.0;"/><polygon fill="#000000" points="747.755,218.964,738.4234,215.8143,742.7765,219.4269,739.1639,223.78,747.755,218.964" style="stroke: #000000; stroke-width: 1.0;"/><!--link <b>extraction.test</b> to _typings--><path d="M664.415,217.495 C691.606,207.802 724.795,195.98 725,195.944 C764.854,189.061 778.538,180.702 816,195.944 C834.719,203.561 850.81,220.063 861.682,233.684 " fill="none" id="&lt;b&gt;extraction.test&lt;/b&gt;-_typings" style="stroke: #000000; stroke-width: 1.0;"/><polygon fill="#000000" points="864.885,237.805,862.5191,228.2445,861.8162,233.8575,856.2032,233.1546,864.885,237.805" style="stroke: #000000; stroke-width: 1.0;"/><!--link get-score-config to _typings--><path d="M288.849,473.7134 C362.065,500.8007 545.643,558.4977 694,519.9444 C754.08,504.3313 776.96,500.2077 816,451.9444 C858.637,399.234 871.302,316.62 875.005,277.252 " fill="none" id="get-score-config-_typings" style="stroke: #000000; stroke-width: 0.5;"/><polygon fill="#000000" points="875.451,272.217,870.6722,280.8288,875.0097,277.1975,878.641,281.5349,875.451,272.217" style="stroke: #000000; stroke-width: 0.5;"/><!--link <b>graphql-server</b> to actions--><path d="M499.502,137.539 C529.191,130.675 567.426,121.834 594.349,115.609 " fill="none" id="&lt;b&gt;graphql-server&lt;/b&gt;-actions" style="stroke: #000000; stroke-width: 1.0;"/><polygon fill="#000000" points="599.24,114.478,589.5705,112.6071,594.3684,115.6038,591.3717,120.4017,599.24,114.478" style="stroke: #000000; stroke-width: 1.0;"/><!--link <b>graphql-server</b> to actions.config--><path d="M500.861,157.86 C525.155,163.056 554.878,169.412 579.421,174.662 " fill="none" id="&lt;b&gt;graphql-server&lt;/b&gt;-actions.config" style="stroke: #000000; stroke-width: 1.0;"/><polygon fill="#000000" points="584.576,175.764,576.6115,169.9704,579.6865,174.7184,574.9385,177.7935,584.576,175.764" style="stroke: #000000; stroke-width: 1.0;"/><!--link <b>graphql-server</b> to extraction--><path d="M502.353,157.502 C513.113,161.466 523.768,167.06 532,174.944 C558.94,200.748 535.797,227.417 563,252.944 C569.187,258.75 577,262.952 585.034,265.991 " fill="none" id="&lt;b&gt;graphql-server&lt;/b&gt;-extraction" style="stroke: #000000; stroke-width: 1.0;"/><polygon fill="#000000" points="590.053,267.738,582.8692,261.0005,585.3312,266.0936,580.2381,268.5555,590.053,267.738" style="stroke: #000000; stroke-width: 1.0;"/><!--link <b>graphql-server</b> to index--><path d="M453.5,163.155 C453.5,178.035 453.5,192.916 453.5,207.796 " fill="none" id="&lt;b&gt;graphql-server&lt;/b&gt;-index" style="stroke: #000000; stroke-width: 1.0;"/><polygon fill="#000000" points="453.5,212.843,457.5,203.843,453.5,207.843,449.5,203.843,453.5,212.843" style="stroke: #000000; stroke-width: 1.0;"/><!--link <b>graphql-server</b> to _typings--><path d="M505.674,139.502 C579.427,130.003 717.541,122.407 816,177.944 C838.524,190.649 855.641,215.441 865.824,233.47 " fill="none" id="&lt;b&gt;graphql-server&lt;/b&gt;-_typings" style="stroke: #000000; stroke-width: 1.0;"/><polygon fill="#000000" points="868.263,237.897,867.424,228.0839,865.8504,233.5175,860.4168,231.944,868.263,237.897" style="stroke: #000000; stroke-width: 1.0;"/><!--link meso-hold.config to _typings--><path d="M693.822,408.532 C732.614,406.392 781.108,397.898 816,371.944 C847.479,348.53 863.937,303.951 871.37,277.091 " fill="none" id="meso-hold.config-_typings" style="stroke: #000000; stroke-width: 0.5;"/><polygon fill="#000000" points="872.738,271.967,866.5532,279.6318,871.4492,276.798,874.2829,281.6939,872.738,271.967" style="stroke: #000000; stroke-width: 0.5;"/><!--link meso-mm.config to _typings--><path d="M693.268,452.9992 C732.825,449.2156 782.346,438.2603 816,408.944 C855.475,374.558 869.407,311.081 874.158,277.362 " fill="none" id="meso-mm.config-_typings" style="stroke: #000000; stroke-width: 0.5;"/><polygon fill="#000000" points="874.844,272.214,869.6885,280.6057,874.1825,277.1701,877.6182,281.6641,874.844,272.214" style="stroke: #000000; stroke-width: 0.5;"/><!--link multiple-listings-config to _typings--><path d="M513.31,16.263 C592.697,4.193 733.662,-3.607 816,71.944 C862.53,114.639 873.336,193.835 875.802,232.515 " fill="none" id="multiple-listings-config-_typings" style="stroke: #000000; stroke-width: 0.5;"/><polygon fill="#000000" points="876.108,237.918,879.5924,228.7061,875.8251,232.926,871.6052,229.1587,876.108,237.918" style="stroke: #000000; stroke-width: 0.5;"/><!--link <b>server</b> to actions--><path d="M462.453,373.262 C477.323,349.229 509.833,295.14 532,246.944 C548.628,210.79 540.231,195.582 563,162.944 C574.522,146.428 592.156,131.854 606.076,121.864 " fill="none" id="&lt;b&gt;server&lt;/b&gt;-actions" style="stroke: #000000; stroke-width: 1.0;"/><polygon fill="#000000" points="610.266,118.914,600.6042,120.8245,606.1776,121.7924,605.2097,127.3658,610.266,118.914" style="stroke: #000000; stroke-width: 1.0;"/><!--link <b>server</b> to actions.config--><path d="M461.531,373.244 C483.128,334.392 547.956,219.043 563,206.944 C568.29,202.69 574.449,199.238 580.821,196.442 " fill="none" id="&lt;b&gt;server&lt;/b&gt;-actions.config" style="stroke: #000000; stroke-width: 1.0;"/><polygon fill="#000000" points="585.724,194.429,575.8792,194.1459,581.0985,196.3275,578.9168,201.5467,585.724,194.429" style="stroke: #000000; stroke-width: 1.0;"/><!--link <b>server</b> to equifax--><path d="M465.701,398.111 C484.208,417.549 523.103,455.6788 563,477.9444 C572.988,483.5183 584.681,487.8856 595.348,491.1594 " fill="none" id="&lt;b&gt;server&lt;/b&gt;-equifax" style="stroke: #000000; stroke-width: 1.0;"/><polygon fill="#000000" points="600.167,492.5871,592.6736,486.1958,595.3729,491.1671,590.4016,493.8664,600.167,492.5871" style="stroke: #000000; stroke-width: 1.0;"/><!--link <b>server</b> to extraction--><path d="M483.678,381.56 C499.278,378.05 518.082,371.834 532,360.944 C552.593,344.832 544.198,329.114 563,310.944 C573.08,301.203 586.214,293.069 597.996,286.931 " fill="none" id="&lt;b&gt;server&lt;/b&gt;-extraction" style="stroke: #000000; stroke-width: 1.0;"/><polygon fill="#000000" points="602.607,284.593,592.771,285.0955,598.1475,286.8542,596.3888,292.2307,602.607,284.593" style="stroke: #000000; stroke-width: 1.0;"/><!--link <b>server</b> to index--><path d="M453.5,372.819 C453.5,330 453.5,287.181 453.5,244.362 " fill="none" id="&lt;b&gt;server&lt;/b&gt;-index" style="stroke: #000000; stroke-width: 1.0;"/><polygon fill="#000000" points="453.5,239.14,449.5,248.14,453.5,244.14,457.5,248.14,453.5,239.14" style="stroke: #000000; stroke-width: 1.0;"/><!--link <b>server</b> to meso-hold.config--><path d="M484.634,389.602 C506.689,392.279 537.403,396.008 564.703,399.322 " fill="none" id="&lt;b&gt;server&lt;/b&gt;-meso-hold.config" style="stroke: #000000; stroke-width: 1.0;"/><polygon fill="#000000" points="569.758,399.935,561.3059,394.8792,564.7945,399.3322,560.3414,402.8208,569.758,399.935" style="stroke: #000000; stroke-width: 1.0;"/><!--link <b>server</b> to meso-mm.config--><path d="M475.986,395.233 C497.783,404.566 532.554,419.211 563,430.944 C570.441,433.8121 578.411,436.7561 586.122,439.5395 " fill="none" id="&lt;b&gt;server&lt;/b&gt;-meso-mm.config" style="stroke: #000000; stroke-width: 1.0;"/><polygon fill="#000000" points="590.882,441.2497,583.7656,434.4411,586.1767,439.5584,581.0595,441.9695,590.882,441.2497" style="stroke: #000000; stroke-width: 1.0;"/><!--link <b>server</b> to _typings--><path d="M473.911,375.889 C495.179,365.353 530.594,349.21 563,340.944 C672.575,312.996 713.668,362.068 816,313.944 C834.048,305.457 849.987,289.347 860.969,276.103 " fill="none" id="&lt;b&gt;server&lt;/b&gt;-_typings" style="stroke: #000000; stroke-width: 1.0;"/><polygon fill="#000000" points="864.215,272.097,855.4403,276.5698,861.0665,275.9812,861.6551,281.6073,864.215,272.097" style="stroke: #000000; stroke-width: 1.0;"/><script type="text/plantuml"><![CDATA[
@startuml

scale max 1920 width
left to right direction

skinparam nodesep 16
skinparam ranksep 31
skinparam monochrome true
skinparam shadowing false
skinparam defaultFontName Tahoma
skinparam defaultFontSize 12
skinparam roundCorner 6
skinparam dpi 150
skinparam arrowColor black
skinparam arrowThickness 0.5
skinparam packageTitleAlignment left

skinparam usecase {
  borderThickness 0.5
}

skinparam rectangle {
  borderThickness 0.5
}

skinparam component {
  borderThickness 1
}


(actions)
(actions.config)
(<b>actions.test</b>)
(<b>autotrader-test</b>)
(<b>config</b>)
(equifax)
(<b>equifax-test</b>)
(extraction)
(<b>extraction.test</b>)
(formatters)
(get-score-config)
(<b>graphql-server</b>)
(index)
(login)
(meso-hold.config)
(meso-mm.config)
(multiple-extractions-config)
(multiple-listings-config)
(page)
(<b>server</b>)
rectangle "typings" as _typings
(update-score.config)


(actions) --> _typings
(<b>actions.test</b>) -[thickness=1]> (actions)
(<b>actions.test</b>) ---[thickness=1]> _typings
(<b>autotrader-test</b>) ----[thickness=1]> (actions)
(<b>autotrader-test</b>) ----[thickness=1]> (extraction)
(<b>autotrader-test</b>) ---[thickness=1]> (index)
(<b>autotrader-test</b>) ---[thickness=1]> (multiple-listings-config)
(<b>config</b>) ---[thickness=1]> _typings
(equifax) ---> (login)
(<b>equifax-test</b>) ----[thickness=1]> (actions)
(<b>equifax-test</b>) ----[thickness=1]> (extraction)
(<b>equifax-test</b>) --[thickness=1]> (get-score-config)
(<b>equifax-test</b>) ---[thickness=1]> (index)
(<b>equifax-test</b>) --[thickness=1]> (multiple-extractions-config)
(<b>equifax-test</b>) --[thickness=1]> (update-score.config)
(extraction) --> (formatters)
(extraction) --> _typings
(<b>extraction.test</b>) -[thickness=1]> (extraction)
(<b>extraction.test</b>) --[thickness=1]> (page)
(<b>extraction.test</b>) ---[thickness=1]> _typings
(get-score-config) ----> _typings
(<b>graphql-server</b>) -[thickness=1]> (actions)
(<b>graphql-server</b>) --[thickness=1]> (actions.config)
(<b>graphql-server</b>) -[thickness=1]> (extraction)
(<b>graphql-server</b>) -[thickness=1]> (index)
(<b>graphql-server</b>) -[thickness=1]> _typings
(meso-hold.config) ---> _typings
(meso-mm.config) ---> _typings
(multiple-listings-config) ----> _typings
(<b>server</b>) -[thickness=1]> (actions)
(<b>server</b>) --[thickness=1]> (actions.config)
(<b>server</b>) --[thickness=1]> (equifax)
(<b>server</b>) -[thickness=1]> (extraction)
(<b>server</b>) -[thickness=1]> (index)
(<b>server</b>) --[thickness=1]> (meso-hold.config)
(<b>server</b>) --[thickness=1]> (meso-mm.config)
(<b>server</b>) -[thickness=1]> _typings

@enduml


' View and edit on https://arkit.pro
]]></script></g></svg>